<svg version="1.0" id="layer1" xmlns="http://www.w3.org/2000/svg" xmlns:xlink="http://www.w3.org/1999/xlink" x="0px" y="0px"
	 width="214.2px" height="42.5px" viewBox="0 0 214.2 42.5" style="enable-background:new 0 0 214.2 42.5;" xml:space="preserve">
<style type="text/css">
	.st0{fill:none;stroke:#000000;stroke-width:6;stroke-linecap:round;stroke-miterlimit:10;}
	.st1{fill:#3E3A39;}
</style>
<g>
	<line class="st0" x1="9.9" y1="21.3" x2="21.2" y2="21.3"/>
	<circle cx="31.7" cy="21.3" r="4"/>
	<line class="st0" x1="9.9" y1="32.6" x2="32.6" y2="32.6"/>
	<line class="st0" x1="9.9" y1="9.9" x2="32.6" y2="9.9"/>
</g>
<g>
	<path class="st1" d="M65.7,21.6h-8.2v6.7h9.7v2.9H54V10h13.1v2.8h-9.7v6h8.2L65.7,21.6L65.7,21.6z"/>
	<path class="st1" d="M81.5,25.7c0-0.9-0.3-1.6-0.9-2.1s-1.7-1.1-3.3-1.5c-2.3-0.7-4-1.5-5.3-2.5c-1.2-1-1.8-2.4-1.8-4
		c0-1.7,0.7-3.1,2.1-4.2s3.1-1.6,5.2-1.6c2.3,0,4.1,0.6,5.5,1.8c1.4,1.2,2.1,2.7,2,4.5v0.1h-3.4c0-1.1-0.3-2-1.1-2.6s-1.7-1-3-1
		c-1.2,0-2.1,0.2-2.7,0.8c-0.7,0.6-1,1.3-1,2.1c0,0.8,0.3,1.5,1.1,2c0.7,0.5,1.9,1,3.5,1.5c2.2,0.7,3.9,1.5,5.1,2.5
		c1.2,1.1,1.7,2.5,1.7,4.1c0,1.7-0.7,3.1-2.1,4.2s-3.2,1.6-5.4,1.6c-2.1,0-4-0.6-5.6-1.7c-1.6-1.1-2.4-2.7-2.3-4.8v-0.1h3.4
		c0,1.2,0.4,2.2,1.3,2.9c0.9,0.7,2,1,3.2,1c1.2,0,2.2-0.2,2.9-0.8C81.1,27.2,81.5,26.6,81.5,25.7z"/>
	<path class="st1" d="M92.1,23v8h-3.5V10h8.1c2.3,0,4.2,0.6,5.5,1.8s2,2.8,2,4.8s-0.7,3.5-2,4.8c-1.3,1.2-3.1,1.8-5.5,1.8L92.1,23
		L92.1,23z M92.1,20.2h4.6c1.3,0,2.3-0.3,3-1.1c0.7-0.7,1-1.6,1-2.6s-0.3-2-1-2.7c-0.7-0.7-1.6-1.1-3-1.1h-4.6V20.2z"/>
	<path class="st1" d="M113.7,18.9c1.2,0,2-0.2,2.5-0.8c0.5-0.6,0.7-1.4,0.7-2.4c0-0.9-0.2-1.6-0.8-2.2c-0.6-0.6-1.3-0.8-2.4-0.8
		c-1,0-1.7,0.2-2.4,0.8c-0.7,0.6-0.9,1.2-0.9,2.1H107v-0.1c-0.1-1.6,0.6-3,1.8-4c1.3-1.1,2.9-1.6,4.8-1.6c2.1,0,3.7,0.5,4.8,1.5
		c1.2,1,1.8,2.5,1.8,4.4c0,1-0.2,1.9-0.8,2.6c-0.5,0.8-1.2,1.4-2.2,1.9c1.1,0.4,1.9,1.1,2.5,1.9c0.6,0.8,0.8,1.9,0.8,3.1
		c0,2-0.7,3.4-2,4.6c-1.3,1.1-3,1.6-5,1.6c-1.9,0-3.5-0.5-4.8-1.6s-2.1-2.5-2.1-4.3v-0.1h3.4c0,0.9,0.3,1.6,1,2.2
		c0.7,0.6,1.5,0.9,2.5,0.9s1.9-0.3,2.5-1c0.7-0.7,0.9-1.5,0.9-2.5c0-1.2-0.3-2.1-0.9-2.7c-0.6-0.7-1.5-0.9-2.6-0.9h-2.4v-2.8
		C111.1,18.8,113.7,18.8,113.7,18.9z"/>
	<path class="st1" d="M137.7,31.1H124v-2.5l6.6-7.6c1.1-1.2,1.8-2.3,2.2-3.1c0.4-0.8,0.7-1.6,0.7-2.4c0-0.9-0.2-1.6-0.7-2.2
		c-0.5-0.6-1.2-0.8-2.1-0.8c-1.1,0-1.9,0.3-2.5,1.1c-0.6,0.7-0.9,1.6-0.9,2.6h-3.4v-0.1c-0.1-1.8,0.6-3.4,1.8-4.6
		c1.2-1.2,2.9-1.9,5-1.9c2.1,0,3.6,0.6,4.8,1.6c1.2,1.1,1.7,2.5,1.7,4.3c0,1.2-0.3,2.3-1,3.4c-0.7,1.1-1.6,2.5-3.1,4.2l-4.4,5.1v0.1
		h9.1L137.7,31.1L137.7,31.1z"/>
	<path class="st1" d="M156.6,24.2L156.6,24.2c0,2.2-0.7,3.9-2.1,5.3c-1.4,1.3-3.4,2-5.8,2c-2.5,0-4.4-0.8-6-2.5
		c-1.6-1.6-2.3-3.8-2.3-6.3v-4c0-2.5,0.7-4.7,2.3-6.3c1.5-1.6,3.4-2.5,5.9-2.5c2.5,0,4.4,0.7,5.8,1.9c1.4,1.2,2.1,3,2.1,5.2V17h-3.4
		c0-1.4-0.4-2.5-1.1-3.2c-0.7-0.7-1.9-1.1-3.4-1.1c-1.4,0-2.5,0.6-3.4,1.7s-1.2,2.5-1.2,4.3v4c0,1.7,0.4,3.2,1.3,4.4
		c0.8,1.1,2,1.7,3.4,1.7s2.5-0.4,3.3-1.2c0.7-0.7,1.1-1.8,1.1-3.3L156.6,24.2L156.6,24.2z"/>
	<path class="st1" d="M169.5,28.7c-0.5,0.8-1.1,1.5-1.9,2c-0.7,0.5-1.6,0.7-2.6,0.7c-1.6,0-3-0.6-3.9-1.6c-1-1.1-1.4-2.8-1.4-5.2
		v-9.1h3.5v9.2c0,1.5,0.2,2.5,0.7,3c0.4,0.6,1.1,0.8,2.1,0.8c0.8,0,1.6-0.2,2.1-0.5c0.6-0.3,1-0.7,1.3-1.3V15.4h3.5v15.7h-3
		L169.5,28.7z"/>
	<path class="st1" d="M190.3,23.8c0,2.3-0.5,4.1-1.6,5.5c-1.1,1.4-2.5,2.1-4.5,2.1c-1,0-1.8-0.2-2.5-0.6c-0.7-0.4-1.3-1-1.8-1.8
		l-0.5,2.1h-2.9V8.5h3.5v8.7c0.5-0.7,1.1-1.1,1.7-1.6c0.7-0.3,1.5-0.6,2.4-0.6c2,0,3.4,0.7,4.5,2.3c1.1,1.6,1.6,3.5,1.6,6.1
		L190.3,23.8L190.3,23.8z M186.7,23.5c0-1.6-0.2-3-0.8-3.9c-0.6-1-1.5-1.5-2.6-1.5c-0.8,0-1.4,0.2-2,0.5c-0.5,0.3-0.9,0.8-1.2,1.5
		v6.6c0.3,0.7,0.7,1.1,1.2,1.5s1.2,0.5,2,0.5c1.2,0,2.1-0.4,2.6-1.3s0.8-2,0.8-3.4V23.5z"/>
	<path class="st1" d="M199.9,31.3c-2.3,0-4.1-0.7-5.3-2.1c-1.3-1.5-2-3.3-2-5.6V23c0-2.3,0.7-4.2,2-5.7s3-2.2,5-2.2
		c2.1,0,3.7,0.7,4.8,2c1.1,1.3,1.6,3,1.6,5.2v1.9h-9.7v0.1c0,1.3,0.4,2.3,1,3.1c0.7,0.8,1.6,1.2,2.9,1.2c1,0,1.8-0.1,2.5-0.3
		c0.7-0.2,1.3-0.6,2-1l1.1,2.3c-0.6,0.5-1.4,1-2.4,1.3C202.3,31.2,201.2,31.3,199.9,31.3z M199.5,17.9c-0.9,0-1.6,0.3-2.2,1
		c-0.6,0.7-0.9,1.6-1.1,2.5v0.1h6.2v-0.2c0-1-0.2-1.8-0.7-2.5C201.3,18.3,200.5,17.9,199.5,17.9z"/>
</g>
</svg>
